<svg xmlns="http://www.w3.org/2000/svg" viewBox="0 0 122 122"><defs><style>.cls-1{fill:#f3f3f3;stroke-miterlimit:10;}.cls-1,.cls-2{stroke:#ccc;stroke-width:2px;}.cls-2{fill:none;stroke-linejoin:round;}</style></defs><title>icon-decision</title><g id="Layer_2" data-name="Layer 2"><g id="Views"><circle class="cls-1" cx="61" cy="61" r="60"/><path class="cls-2" d="M82.09,54.4v.21l.24,0Z"/><path class="cls-2" d="M86.21,98.61A25.4,25.4,0,0,0,70.83,78.06C77.24,74.7,82.09,68.48,82.09,63V61.43a1.22,1.22,0,0,0,1.13-1.21V55.81a1.22,1.22,0,0,0-.89-1.17,25,25,0,0,0,1.42-13.2c-1.05-5.49-3-9.95-4.87-11.32,1.87-.65,3-1.07,3-1.07s-7.9-12.68-25-9.33c-16.08,3.14-22.29,9.47-15.92,14.7a35.41,35.41,0,0,0-2.07,7,24.81,24.81,0,0,0,1,12.2v.27h-.08a1.22,1.22,0,0,0-1.22,1.22v4.41a1.22,1.22,0,0,0,1.22,1.22h.08V63c0,4.93,5.1,11.35,11.74,14.91A25.4,25.4,0,0,0,35.79,98.61M82.09,54.4l.24.25-.24,0Z"/></g></g></svg>