<svg xmlns="http://www.w3.org/2000/svg" viewBox="0 0 122 122"><defs><style>.cls-1{fill:#f3f3f3;}.cls-1,.cls-2{stroke:#ccc;stroke-miterlimit:10;stroke-width:2px;}.cls-2{fill:none;}</style></defs><title>icon-phase</title><g id="Layer_2" data-name="Layer 2"><g id="Views"><circle class="cls-1" cx="61" cy="61" r="60"/><path class="cls-2" d="M51.84,93.92h-13a6.37,6.37,0,0,1-6.37-6.37V36.39A6.37,6.37,0,0,1,38.81,30H86.75"/><line class="cls-2" x1="86.75" y1="93.92" x2="63.6" y2="93.92"/><path class="cls-2" d="M82.51,38.29H91v-4A4.24,4.24,0,0,0,86.75,30h0a4.24,4.24,0,0,0-4.24,4.24V89.68a4.24,4.24,0,0,0,4.24,4.24h0A4.24,4.24,0,0,0,91,89.68V85.43H82.51"/><polyline class="cls-2" points="63.59 83.71 63.59 99.02 57.72 95.71 51.84 99.02 51.84 83.71"/><circle class="cls-2" cx="57.72" cy="76.74" r="9.12"/><circle class="cls-2" cx="57.72" cy="76.74" r="4.73"/><path class="cls-2" d="M57.72,93.92"/><line class="cls-2" x1="43.11" y1="46.2" x2="69.48" y2="46.2"/><line class="cls-2" x1="43.11" y1="51.02" x2="69.48" y2="51.02"/><line class="cls-2" x1="43.11" y1="55.84" x2="69.48" y2="55.84"/></g></g></svg>