<svg xmlns="http://www.w3.org/2000/svg" viewBox="0 0 120 120"><defs><style>.cls-1{fill:#ff6d33;}.cls-2{fill:none;stroke:#f3f3f3;stroke-miterlimit:10;stroke-width:2px;}</style></defs><title>Icon-data-active</title><g id="Layer_2" data-name="Layer 2"><g id="Popups"><g id="Select"><circle class="cls-1" cx="60" cy="60" r="60"/><rect class="cls-2" x="33.57" y="46.6" width="52.85" height="43.12"/><rect class="cls-2" x="48.04" y="70.67" width="4.88" height="7.63"/><rect class="cls-2" x="48.04" y="58.49" width="4.88" height="7.63"/><rect class="cls-2" x="57.18" y="58.49" width="4.88" height="7.63"/><rect class="cls-2" x="57.18" y="69.68" width="4.88" height="15.64"/><rect class="cls-2" x="75.57" y="55.03" width="4.88" height="11.1"/><rect class="cls-2" x="75.57" y="70.67" width="4.88" height="7.63"/><rect class="cls-2" x="66.37" y="70.67" width="4.88" height="7.63"/><rect class="cls-2" x="66.37" y="58.49" width="4.88" height="7.63"/><rect class="cls-2" x="51.88" y="85.31" width="14.69" height="4.4"/><rect class="cls-2" x="30" y="41.12" width="60" height="5.47"/><rect class="cls-2" x="37.41" y="35.3" width="45.18" height="5.82"/><path class="cls-2" d="M48,35.3c0-4.1,5.18-7.42,11.57-7.42S71.19,31.2,71.19,35.3Z"/><rect class="cls-2" x="38.84" y="55.03" width="4.88" height="11.1"/><rect class="cls-2" x="38.84" y="70.67" width="4.88" height="7.63"/></g></g></g></svg>