<svg xmlns="http://www.w3.org/2000/svg" viewBox="0 0 120 120"><defs><style>.cls-1{fill:#ff6d33;}.cls-2{fill:none;stroke:#f3f3f3;stroke-miterlimit:10;stroke-width:2px;}.cls-3{fill:#f3f3f3;}</style></defs><title>Icon-email-active</title><g id="Layer_2" data-name="Layer 2"><g id="Popups"><g id="Select"><circle class="cls-1" cx="60" cy="60" r="60"/><polygon class="cls-2" points="59.09 38.99 41.24 38.99 42.23 35.32 60.09 35.32 59.09 38.99"/><polygon class="cls-2" points="76.71 38.99 58.85 38.99 59.84 35.32 77.7 35.32 76.71 38.99"/><circle class="cls-3" cx="26.04" cy="38.49" r="1.14"/><circle class="cls-3" cx="30.34" cy="38.49" r="1.14"/><circle class="cls-3" cx="34.63" cy="38.49" r="1.14"/><path class="cls-2" d="M91.18,35.07v.56a1.82,1.82,0,0,0-1.82-1.82h0a1.82,1.82,0,0,0-1.82,1.82v4.59A1.82,1.82,0,0,0,89.36,42h0a1.82,1.82,0,0,0,1.82-1.82v-3"/><rect id="_Rectangle_" data-name="&lt;Rectangle&gt;" class="cls-2" x="22.56" y="35.32" width="74.88" height="55.49" rx="1.88" ry="1.88"/><rect class="cls-2" x="28.82" y="46.23" width="62.36" height="38.81"/><polygon class="cls-2" points="60 49.88 64.28 58.56 73.87 59.95 66.93 66.71 68.57 76.25 60 71.75 51.43 76.25 53.07 66.71 46.13 59.95 55.72 58.56 60 49.88"/></g></g></g></svg>