<svg xmlns="http://www.w3.org/2000/svg" viewBox="0 0 122 122"><defs><style>.cls-1{fill:#f3f3f3;}.cls-1,.cls-2{stroke:#ccc;stroke-miterlimit:10;stroke-width:2px;}.cls-2{fill:none;}</style></defs><title>Icon-data</title><g id="Layer_2" data-name="Layer 2"><g id="Views"><circle class="cls-1" cx="61" cy="61" r="60"/><rect class="cls-2" x="34.57" y="47.6" width="52.85" height="43.12"/><rect class="cls-2" x="49.04" y="71.67" width="4.88" height="7.63"/><rect class="cls-2" x="49.04" y="59.49" width="4.88" height="7.63"/><rect class="cls-2" x="58.18" y="59.49" width="4.88" height="7.63"/><rect class="cls-2" x="58.18" y="70.68" width="4.88" height="15.64"/><rect class="cls-2" x="76.57" y="56.03" width="4.88" height="11.1"/><rect class="cls-2" x="76.57" y="71.67" width="4.88" height="7.63"/><rect class="cls-2" x="67.37" y="71.67" width="4.88" height="7.63"/><rect class="cls-2" x="67.37" y="59.49" width="4.88" height="7.63"/><rect class="cls-2" x="52.88" y="86.31" width="14.69" height="4.4"/><rect class="cls-2" x="31" y="42.12" width="60" height="5.47"/><rect class="cls-2" x="38.41" y="36.3" width="45.18" height="5.82"/><path class="cls-2" d="M49,36.3c0-4.1,5.18-7.42,11.57-7.42S72.19,32.2,72.19,36.3Z"/><rect class="cls-2" x="39.84" y="56.03" width="4.88" height="11.1"/><rect class="cls-2" x="39.84" y="71.67" width="4.88" height="7.63"/></g></g></svg>