<svg xmlns="http://www.w3.org/2000/svg" viewBox="0 0 122 122"><defs><style>.cls-1{fill:#f3f3f3;}.cls-1,.cls-2,.cls-3{stroke:#ccc;stroke-miterlimit:10;stroke-width:2px;}.cls-2,.cls-3{fill:none;}.cls-3{stroke-linecap:round;}</style></defs><title>icon-school</title><g id="Layer_2" data-name="Layer 2"><g id="Views"><circle class="cls-1" cx="61" cy="61" r="60"/><path class="cls-2" d="M46.71,71.15l24.69,8.3a.71.71,0,0,0,.46,0l24.48-8.3a.71.71,0,0,0,0-1.35L71.75,61.5a.71.71,0,0,0-.46,0l-24.58,8.3A.71.71,0,0,0,46.71,71.15Z"/><path class="cls-2" d="M54.39,73.72V90.12s4.7,4.38,17.15,4.38,17.1-4.38,17.1-4.38l-.33-9.87"/><line class="cls-2" x1="96.54" y1="81.51" x2="96.54" y2="71.08"/><rect class="cls-2" x="94.9" y="81.51" width="3.1" height="5.67"/><path class="cls-2" d="M88.58,61.95V34.64a.88.88,0,0,0-1.14-.84L58.61,42.88H58.5L29.67,33.81a.88.88,0,0,0-1.14.84V73.72a2.06,2.06,0,0,0,1.33,1.93L54.31,85"/><line class="cls-3" x1="32.42" y1="44.59" x2="51.84" y2="50.7"/><line class="cls-3" x1="32.42" y1="49.23" x2="51.84" y2="55.34"/><line class="cls-3" x1="32.42" y1="53.26" x2="51.84" y2="59.37"/><line class="cls-3" x1="32.42" y1="57.14" x2="51.84" y2="63.25"/><line class="cls-3" x1="63.49" y1="54.82" x2="82.91" y2="48.71"/><line class="cls-3" x1="63.49" y1="50.76" x2="82.91" y2="44.65"/></g></g></svg>