<svg xmlns="http://www.w3.org/2000/svg" viewBox="0 0 122 122"><defs><style>.cls-1{fill:#f3f3f3;}.cls-1,.cls-2{stroke:#ccc;stroke-miterlimit:10;stroke-width:2px;}.cls-2{fill:none;}</style></defs><title>Icon-post</title><g id="Layer_2" data-name="Layer 2"><g id="Views"><circle class="cls-1" cx="61" cy="61" r="60"/><path class="cls-2" d="M54.74,73.67H31.94V51.51A13.61,13.61,0,0,1,45.55,37.91H77.2A13.35,13.35,0,0,1,90.55,51.26v19.2"/><path class="cls-2" d="M63.73,70.46V51.51A13.61,13.61,0,0,1,77.33,37.91"/><path class="cls-2" d="M60.21,28H56.6a2.32,2.32,0,1,0,0,4.63h3.61v5.23h3.43V28Z"/><rect class="cls-2" x="63.73" y="70.46" width="32.65" height="3.21"/><rect class="cls-2" x="68.51" y="52.44" width="18.24" height="3.21"/><rect class="cls-2" x="52.61" y="73.67" width="5.52" height="14.38"/><rect class="cls-2" x="58.13" y="73.67" width="5.52" height="14.38"/><line class="cls-2" x1="31.94" y1="61.15" x2="63.73" y2="61.15"/><line class="cls-2" x1="31.94" y1="70.01" x2="63.73" y2="70.01"/></g></g></svg>