<svg xmlns="http://www.w3.org/2000/svg" viewBox="0 0 122 122"><defs><style>.cls-1{fill:#f3f3f3;}.cls-1,.cls-2{stroke:#ccc;stroke-miterlimit:10;stroke-width:2px;}.cls-2{fill:none;}.cls-3{fill:#ccc;}</style></defs><title>Icon-email</title><g id="Layer_2" data-name="Layer 2"><g id="Views"><circle class="cls-1" cx="61" cy="61" r="60"/><polygon class="cls-2" points="60.09 39.99 42.24 39.99 43.23 36.32 61.09 36.32 60.09 39.99"/><polygon class="cls-2" points="77.71 39.99 59.85 39.99 60.84 36.32 78.7 36.32 77.71 39.99"/><circle class="cls-3" cx="27.04" cy="39.49" r="1.14"/><circle class="cls-3" cx="31.34" cy="39.49" r="1.14"/><circle class="cls-3" cx="35.63" cy="39.49" r="1.14"/><path class="cls-2" d="M92.18,36.07v.56a1.82,1.82,0,0,0-1.82-1.82h0a1.82,1.82,0,0,0-1.82,1.82v4.59A1.82,1.82,0,0,0,90.36,43h0a1.82,1.82,0,0,0,1.82-1.82v-3"/><rect id="_Rectangle_" data-name="&lt;Rectangle&gt;" class="cls-2" x="23.56" y="36.32" width="74.88" height="55.49" rx="1.88" ry="1.88"/><rect class="cls-2" x="29.82" y="47.23" width="62.36" height="38.81"/><polygon class="cls-2" points="61 50.88 65.28 59.56 74.87 60.95 67.93 67.71 69.57 77.25 61 72.75 52.43 77.25 54.07 67.71 47.13 60.95 56.72 59.56 61 50.88"/></g></g></svg>