<svg xmlns="http://www.w3.org/2000/svg" viewBox="0 0 120 120"><defs><style>.cls-1{fill:#ff6d33;}.cls-2{fill:none;stroke:#f3f3f3;stroke-miterlimit:10;stroke-width:2px;}</style></defs><title>Icon-post-active</title><g id="Layer_2" data-name="Layer 2"><g id="Popups"><g id="Select"><circle class="cls-1" cx="60" cy="60" r="60"/><path class="cls-2" d="M53.74,72.67H30.94V50.51A13.61,13.61,0,0,1,44.55,36.91H76.2A13.35,13.35,0,0,1,89.55,50.26v19.2"/><path class="cls-2" d="M62.73,69.46V50.51A13.61,13.61,0,0,1,76.33,36.91"/><path class="cls-2" d="M59.21,27H55.6a2.32,2.32,0,1,0,0,4.63h3.61v5.23h3.43V27Z"/><rect class="cls-2" x="62.73" y="69.46" width="32.65" height="3.21"/><rect class="cls-2" x="67.51" y="51.44" width="18.24" height="3.21"/><rect class="cls-2" x="51.61" y="72.67" width="5.52" height="14.38"/><rect class="cls-2" x="57.13" y="72.67" width="5.52" height="14.38"/><line class="cls-2" x1="30.94" y1="60.15" x2="62.73" y2="60.15"/><line class="cls-2" x1="30.94" y1="69.01" x2="62.73" y2="69.01"/></g></g></g></svg>